<?xml version="1.0" standalone="no"?>
<!DOCTYPE svg PUBLIC "-//W3C//DTD SVG 20010904//EN"
 "http://www.w3.org/TR/2001/REC-SVG-20010904/DTD/svg10.dtd">
<svg version="1.0" xmlns="http://www.w3.org/2000/svg"
 width="212.000000pt" height="208.000000pt" viewBox="0 0 212.000000 208.000000"
 preserveAspectRatio="xMidYMid meet">
<metadata>
Created by potrace 1.16, written by Peter Selinger 2001-2019
</metadata>
<g transform="translate(0.000000,208.000000) scale(0.100000,-0.100000)"
fill="#000000" stroke="none">
<path d="M215 1880 l-70 -70 390 -390 390 -390 -390 -390 -390 -390 73 -72 72
-73 390 390 390 390 390 -390 390 -390 72 73 73 72 -390 390 -390 390 390 390
390 390 -73 72 -72 73 -390 -390 -390 -390 -388 388 c-213 213 -389 387 -392
387 -3 0 -37 -32 -75 -70z"/>
</g>
</svg>
